<?xml version="1.0" encoding="UTF-8" standalone="no"?>
<!-- Created with Inkscape (http://www.inkscape.org/) -->

<svg
   width="42.333332mm"
   height="29.633333mm"
   viewBox="0 0 42.333332 29.633333"
   version="1.1"
   id="svg10454"
   inkscape:version="1.2.2 (732a01da63, 2022-12-09)"
   sodipodi:docname="cblank.svg"
   xmlns:inkscape="http://www.inkscape.org/namespaces/inkscape"
   xmlns:sodipodi="http://sodipodi.sourceforge.net/DTD/sodipodi-0.dtd"
   xmlns="http://www.w3.org/2000/svg"
   xmlns:svg="http://www.w3.org/2000/svg">
  <sodipodi:namedview
     id="namedview10456"
     pagecolor="#ffffff"
     bordercolor="#000000"
     borderopacity="0.25"
     inkscape:showpageshadow="2"
     inkscape:pageopacity="0.0"
     inkscape:pagecheckerboard="0"
     inkscape:deskcolor="#d1d1d1"
     inkscape:document-units="mm"
     showgrid="false"
     inkscape:zoom="4.3540636"
     inkscape:cx="108.17481"
     inkscape:cy="72.231375"
     inkscape:window-width="1920"
     inkscape:window-height="1051"
     inkscape:window-x="-9"
     inkscape:window-y="-9"
     inkscape:window-maximized="1"
     inkscape:current-layer="layer1" />
  <defs
     id="defs10451" />
  <g
     inkscape:label="Layer 1"
     inkscape:groupmode="layer"
     id="layer1"
     transform="translate(51.416666,-23.683334)">
    <path
       class="sb3-"
       d="m -51.416666,24.741667 a 1.0583333,1.0583333 0 0 1 1.058333,-1.058333 h 2.116667 c 0.529167,0 0.79375,0.264583 1.058333,0.529167 l 1.058334,1.058333 c 0.264583,0.264583 0.529166,0.529167 1.058333,0.529167 h 3.175 c 0.529167,0 0.79375,-0.264584 1.058333,-0.529167 l 1.058334,-1.058333 c 0.264583,-0.264584 0.529166,-0.529167 1.058333,-0.529167 h 28.574999 a 1.0583333,1.0583333 0 0 1 1.0583338,1.058333 v 10.583334 a 1.0583333,1.0583333 0 0 1 -1.0583338,1.058333 h -24.341666 c -0.529167,0 -0.79375,0.264583 -1.058333,0.529166 L -36.6,37.970834 C -36.864583,38.235417 -37.129166,38.5 -37.658333,38.5 h -3.175 c -0.529166,0 -0.79375,-0.264583 -1.058333,-0.529166 L -42.949999,36.9125 c -0.264584,-0.264583 -0.529167,-0.529166 -1.058334,-0.529166 h -2.116666 a 1.0583333,1.0583333 0 0 0 -1.058334,1.058333 V 41.675 a 1.0583333,1.0583333 0 0 0 1.058334,1.058334 h 2.116666 c 0.529167,0 0.79375,0.264583 1.058334,0.529166 l 1.058333,1.058334 c 0.264583,0.264583 0.529167,0.529166 1.058333,0.529166 h 3.175 c 0.529167,0 0.79375,-0.264583 1.058333,-0.529166 l 1.058334,-1.058334 c 0.264583,-0.264583 0.529166,-0.529166 1.058333,-0.529166 h 24.341666 a 1.0583333,1.0583333 0 0 1 1.0583338,1.058333 v 6.35 A 1.0583333,1.0583333 0 0 1 -10.141667,51.2 h -28.574999 c -0.529167,0 -0.79375,0.264584 -1.058333,0.529167 l -1.058334,1.058333 c -0.264583,0.264584 -0.529166,0.529167 -1.058333,0.529167 h -3.175 c -0.529167,0 -0.79375,-0.264583 -1.058333,-0.529167 l -1.058334,-1.058333 C -47.447916,51.464584 -47.712499,51.2 -48.241666,51.2 h -2.116667 a 1.0583333,1.0583333 0 0 1 -1.058333,-1.058333 z"
       fill="#888888"
       stroke="rgba(0, 0, 0, 0.2)"
       id="path8695"
       style="stroke-width:0.264583" />
  </g>
</svg>
